<svg version="1.1" viewBox="0.0 0.0 185.72965879265092 186.96062992125985" fill="none" stroke="none"
    stroke-linecap="square" stroke-miterlimit="10" xmlns:xlink="http://www.w3.org/1999/xlink"
    xmlns="http://www.w3.org/2000/svg">
    <clipPath id="p.0">
        <path d="m0 0l185.72966 0l0 186.96063l-185.72966 0l0 -186.96063z" clip-rule="nonzero" />
    </clipPath>
    <g clip-path="url(#p.0)">
        <path fill="#000000" fill-opacity="0.0" d="m0 0l185.72966 0l0 186.96063l-185.72966 0z" fill-rule="evenodd" />
        <path fill="#ffe599" opacity="0.9"
            d="m0.9651798 98.39481l0 0c0 -48.679333 41.1757 -88.14173 91.968506 -88.14173l0 0c24.391563 0 47.78412 9.286334 65.031555 25.816116c17.247437 16.529781 26.93695 38.948975 26.93695 62.325615l0 0c0 48.67933 -41.175705 88.14173 -91.968506 88.14173l0 0c-50.792805 0 -91.968506 -39.462402 -91.968506 -88.14173z"
            fill-rule="evenodd" />
        <path stroke="#000000" stroke-width="1.0" stroke-linejoin="round" stroke-linecap="butt"
            stroke-dasharray="4.0,3.0"
            d="m0.9651798 98.39481l0 0c0 -48.679333 41.1757 -88.14173 91.968506 -88.14173l0 0c24.391563 0 47.78412 9.286334 65.031555 25.816116c17.247437 16.529781 26.93695 38.948975 26.93695 62.325615l0 0c0 48.67933 -41.175705 88.14173 -91.968506 88.14173l0 0c-50.792805 0 -91.968506 -39.462402 -91.968506 -88.14173z"
            fill-rule="evenodd" />
        <path fill="#cc0000" d="m43.605145 2.71916E-4l99.37007 0l0 17.637794l-99.37007 0z" fill-rule="evenodd" />
    </g>
</svg>