<svg version="1.1" viewBox="0.0 0.0 133.23622047244095 128.74278215223097" fill="none" stroke="none"
    stroke-linecap="square" stroke-miterlimit="10" xmlns:xlink="http://www.w3.org/1999/xlink"
    xmlns="http://www.w3.org/2000/svg">

    <g clip-path="url(#p.0)">
        <path fill="#000000" fill-opacity="0.0" d="m0 0l133.23622 0l0 128.74278l-133.23622 0z" fill-rule="evenodd" />
        <path stroke="#000000" stroke-width="1.0" stroke-linejoin="round" stroke-linecap="butt"
            d="m1.5366433 64.27926l0 0c0 -34.7461 29.133219 -62.913383 65.07086 -62.913383l0 0c17.257874 0 33.8089 6.6283555 46.012054 18.426903c12.2031555 11.79855 19.058815 27.800816 19.058815 44.48648l0 0c0 34.74611 -29.133217 62.91339 -65.07087 62.91339l0 0c-35.937645 0 -65.07086 -28.167282 -65.07086 -62.91339z"
            fill-rule="evenodd" />
        <path fill="#f6b26b"
            d="m1.5366433 64.27926l0 0c0 -34.7461 29.133219 -62.913383 65.07086 -62.913383l0 0c17.257874 0 33.8089 6.6283555 46.012054 18.426903c12.2031555 11.79855 19.058815 27.800816 19.058815 44.48648l0 0c0 34.74611 -29.133217 62.91339 -65.07087 62.91339l0 0c-35.937645 0 -65.07086 -28.167282 -65.07086 -62.91339z"
            fill-rule="evenodd" />
        <path stroke="#cc0000" stroke-width="3.0" stroke-linejoin="round" stroke-linecap="butt"
            d="m1.5366433 64.27926l0 0c0 -34.7461 29.133219 -62.913383 65.07086 -62.913383l0 0c17.257874 0 33.8089 6.6283555 46.012054 18.426903c12.2031555 11.79855 19.058815 27.800816 19.058815 44.48648l0 0c0 34.74611 -29.133217 62.91339 -65.07087 62.91339l0 0c-35.937645 0 -65.07086 -28.167282 -65.07086 -62.91339z"
            fill-rule="evenodd" />
        <path fill="#e69138"
            d="m32.263863 64.88488l0 0c0 -19.238647 15.031952 -34.83465 33.5748 -34.83465l0 0c8.904594 0 17.44448 3.6700668 23.740974 10.202831c6.2964935 6.5327644 9.833832 15.393093 9.833832 24.631817l0 0c0 19.23864 -15.031952 34.83464 -33.574806 34.83464l0 0c-18.542847 0 -33.5748 -15.596001 -33.5748 -34.83464z"
            fill-rule="evenodd" />
        <path stroke="#000000" stroke-width="1.0" stroke-linejoin="round" stroke-linecap="butt"
            stroke-dasharray="4.0,3.0"
            d="m32.263863 64.88488l0 0c0 -19.238647 15.031952 -34.83465 33.5748 -34.83465l0 0c8.904594 0 17.44448 3.6700668 23.740974 10.202831c6.2964935 6.5327644 9.833832 15.393093 9.833832 24.631817l0 0c0 19.23864 -15.031952 34.83464 -33.574806 34.83464l0 0c-18.542847 0 -33.5748 -15.596001 -33.5748 -34.83464z"
            fill-rule="evenodd" />
        <path fill="#cc0000" d="m16.605272 29.272861l99.37008 0l0 17.637794l-99.37008 0z" fill-rule="evenodd" />
        <path fill="#000000" fill-opacity="0.0" d="m66.79265 65.05249l118.99213 0.47244263" fill-rule="evenodd" />
        <path stroke="#000000" stroke-width="1.0" stroke-linejoin="round" stroke-linecap="butt"
            stroke-dasharray="1.0,3.0" d="m66.79265 65.05249l118.99213 0.47244263" fill-rule="evenodd" />
        <path fill="#000000" fill-opacity="0.0" d="m-47.08988 101.01753l113.27025 -36.103333" fill-rule="evenodd" />
        <path stroke="#000000" stroke-width="1.0" stroke-linejoin="round" stroke-linecap="butt"
            stroke-dasharray="1.0,3.0" d="m-47.08988 101.01753l113.27025 -36.103333" fill-rule="evenodd" />
        <path fill="#000000" fill-opacity="0.0" d="m66.35587 65.00946l-64.92056 95.08905" fill-rule="evenodd" />
        <path stroke="#000000" stroke-width="1.0" stroke-linejoin="round" stroke-linecap="butt"
            stroke-dasharray="1.0,3.0" d="m66.35587 65.00946l-64.92056 95.08905" fill-rule="evenodd" />
        <path fill="#000000" fill-opacity="0.0" d="m66.407684 64.80483l93.71039 70.19689" fill-rule="evenodd" />
        <path stroke="#000000" stroke-width="1.0" stroke-linejoin="round" stroke-linecap="butt"
            stroke-dasharray="1.0,3.0" d="m66.407684 64.80483l93.71039 70.19689" fill-rule="evenodd" />
        <path fill="#000000" fill-opacity="0.0" d="m67.54375 194.25987l-1.1716843 -130.17538" fill-rule="evenodd" />
        <path stroke="#000000" stroke-width="1.0" stroke-linejoin="round" stroke-linecap="butt"
            stroke-dasharray="1.0,3.0" d="m67.54375 194.25987l-1.1716843 -130.17538" fill-rule="evenodd" />
        <path fill="#000000" fill-opacity="0.0" d="m-45.855133 26.336916l112.12248 38.621605" fill-rule="evenodd" />
        <path stroke="#000000" stroke-width="1.0" stroke-linejoin="round" stroke-linecap="butt"
            stroke-dasharray="1.0,3.0" d="m-45.855133 26.336916l112.12248 38.621605" fill-rule="evenodd" />
        <path fill="#000000" fill-opacity="0.0" d="m0.6119938 -30.289045l65.5901 95.18592" fill-rule="evenodd" />
        <path stroke="#000000" stroke-width="1.0" stroke-linejoin="round" stroke-linecap="butt"
            stroke-dasharray="1.0,3.0" d="m0.6119938 -30.289045l65.5901 95.18592" fill-rule="evenodd" />
        <path fill="#000000" fill-opacity="0.0" d="m66.992584 -64.72757l-0.76517487 129.64268" fill-rule="evenodd" />
        <path stroke="#000000" stroke-width="1.0" stroke-linejoin="round" stroke-linecap="butt"
            stroke-dasharray="1.0,3.0" d="m66.992584 -64.72757l-0.76517487 129.64268" fill-rule="evenodd" />
        <path fill="#000000" fill-opacity="0.0" d="m138.55927 -23.937265l-72.54844 88.8418" fill-rule="evenodd" />
        <path stroke="#000000" stroke-width="1.0" stroke-linejoin="round" stroke-linecap="butt"
            stroke-dasharray="1.0,3.0" d="m138.55927 -23.937265l-72.54844 88.8418" fill-rule="evenodd" />
    </g>
</svg>