<svg version="1.1" viewBox="0.0 0.0 189.9028871391076 380.2992125984252" fill="none" stroke="none"
    stroke-linecap="square" stroke-miterlimit="10" xmlns:xlink="http://www.w3.org/1999/xlink"
    xmlns="http://www.w3.org/2000/svg">
    <clipPath id="p.0">
        <path d="m0 0l189.9029 0l0 380.29922l-189.9029 0l0 -380.29922z" clip-rule="nonzero" />
    </clipPath>
    <g clip-path="url(#p.0)">
        <path fill="#000000" fill-opacity="0.0" d="m0 0l189.9029 0l0 380.29922l-189.9029 0z" fill-rule="evenodd" />
        <path fill="#c27ba0"
            d="m0.048008863 380.5943l0 0c67.35068 0.7988281 129.98117 -33.98001 164.15134 -91.153595c34.170166 -57.1736 34.64987 -127.990875 1.257309 -185.60849c-33.392563 -57.617626 -95.5463 -93.21659 -162.90181 -93.303085l-0.022291422 16.84227l0 0c61.316475 0.07850075 117.89769 32.4368 148.29669 84.80956c30.399017 52.372765 29.962967 116.74387 -1.142868 168.71362c-31.10582 51.969757 -88.12039 83.58371 -149.43248 82.85867z"
            fill-rule="evenodd" />
        <path fill="#c27ba0" d="m-0.06824147 0.63122624l68.09449 -0.62992126l0 26.771654l-68.09449 0.62992096z"
            fill-rule="evenodd" />
    </g>
</svg>