<svg viewBox="0 0 175.2 100.66" xmlns="http://www.w3.org/2000/svg">
    <path fill="#8fa6ba" d="M115.57 6.26c0 3.08 13.2 5.57 29.48 5.57s29.48-2.5 29.48-5.57v33.45c0 3.08-13.2 5.57-29.48 5.57s-29.48-2.5-29.48-5.57z"/>
    <path fill="#8fa6ba" d="M115.57 60.94c0 3.08 13.2 5.57 29.48 5.57s29.48-2.5 29.48-5.57v33.45c0 3.08-13.2 5.57-29.48 5.57s-29.48-2.5-29.48-5.57z"/>
    <path fill="#ffff" stroke-width="1" d="M0.68 29.76h47.54v42.37H0.68z"/>
    <path fill="#ffff" stroke-width="1" d="M174.53 6.26c0 3.08-13.2 5.57-29.48 5.57s-29.48-2.5-29.48-5.57 13.2-5.57 29.48-5.57 29.48 2.5 29.48 5.57z"/>
    <path fill="#fff" stroke-width="1" d="M174.53 60.94c0 3.08-13.2 5.57-29.48 5.57s-29.48-2.5-29.48-5.57 13.2-5.57 29.48-5.57 29.48 2.5 29.48 5.57z"/>
</svg>
