<svg version="1.1" viewBox="0.0 0.0 308.37007874015745 34.0" fill="none" stroke="none" stroke-linecap="square"
    stroke-miterlimit="10" xmlns:xlink="http://www.w3.org/1999/xlink" xmlns="http://www.w3.org/2000/svg">

    <g clip-path="url(#p.0)">
        <path fill="#cfe2f3"
            d="m248.12317 5.7797017l45.900818 0c6.3375854 0 11.475189 5.2097383 11.475189 11.636276c0 6.4265385 -5.1376038 11.636278 -11.475189 11.636278l-45.900818 0l0 0c-6.3375854 0 -11.475204 -5.2097397 -11.475204 -11.636278c0 -6.4265375 5.137619 -11.636276 11.475204 -11.636276z"
            fill-rule="evenodd" />
        <path stroke="#000000" stroke-width="1.0" stroke-linejoin="round" stroke-linecap="butt"
            d="m294.024 29.052256c-6.3375854 0 -11.47522 -5.2097397 -11.47522 -11.636278c0 -6.4265375 5.1376343 -11.636276 11.47522 -11.636276"
            fill-rule="evenodd" />
        <path stroke="#000000" stroke-width="1.0" stroke-linejoin="round" stroke-linecap="butt"
            d="m248.12317 5.7797017l45.900818 0c6.3375854 0 11.475189 5.2097383 11.475189 11.636276c0 6.4265385 -5.1376038 11.636278 -11.475189 11.636278l-45.900818 0l0 0c-6.3375854 0 -11.475204 -5.2097397 -11.475204 -11.636278c0 -6.4265375 5.137619 -11.636276 11.475204 -11.636276z"
            fill-rule="evenodd" />
        <path fill="#cfe2f3" d="m124.07398 4.5193377l60.6448 -0.025848866l0 26.133156l-60.6448 0.025850296z"
            fill-rule="evenodd" />
        <path stroke="#000000" stroke-width="1.0" stroke-linejoin="round" stroke-linecap="butt"
            d="m124.07398 4.5193377l60.6448 -0.025848866l0 26.133156l-60.6448 0.025850296z" fill-rule="evenodd" />
        <path fill="#cfe2f3" d="m5.633982 4.5193377l60.644802 -0.025848866l0 26.133156l-60.644802 0.025850296z"
            fill-rule="evenodd" />
        <path stroke="#000000" stroke-width="1.0" stroke-linejoin="round" stroke-linecap="butt"
            d="m5.633982 4.5193377l60.644802 -0.025848866l0 26.133156l-60.644802 0.025850296z" fill-rule="evenodd" />
    </g>
</svg>