<svg class="t m0 searchengine ff2 fs0 fc3 sc0 ls0 ws0" version="1.1" viewBox="0.0 0.0 90.0 50.0" fill="none" stroke="none" stroke-linecap="square" stroke-miterlimit="10" xmlns:xlink="http://www.w3.org/1999/xlink" xmlns="http://www.w3.org/2000/svg"><clipPath id="p.0"><path d="m0 0l100.0 0l0 100.0l-100.0 0l0 -100.0z" clip-rule="nonzero"/></clipPath><g clip-path="url(#p.0)"><path fill="#000000" fill-opacity="0.0" d="m0 0l100.0 0l0 100.0l-100.0 0z" fill-rule="evenodd"/><path fill="#cfe2f3" d="m0.61454517 8.815557l72.99391 0l0 32.38054c-36.494995 0 -36.494995 12.458393 -72.99391 6.2291985zm6.0138035 0l0 -4.1979365l72.495384 0l0 32.583668c-2.7556763 0 -5.515274 0.22569275 -5.515274 0.22569275l0 -28.611423zm5.652662 -4.1979365l0 -4.096374l73.12345 0l0 32.4821c-3.1403656 0 -6.280731 0.16926956 -6.280731 0.16926956l0 -28.554998z" fill-rule="evenodd"/><path fill="#000000" fill-opacity="0.0" d="m0.61454517 8.815557l72.99391 0l0 32.38054c-36.494995 0 -36.494995 12.458393 -72.99391 6.2291985zm6.0138035 0l0 -4.1979365l72.495384 0l0 32.583668c-2.7556763 0 -5.515274 0.22569275 -5.515274 0.22569275m-61.32745 -32.80936l0 -4.096374l73.12345 0l0 32.4821c-3.1403656 0 -6.280731 0.16926956 -6.280731 0.16926956" fill-rule="evenodd"/><path fill="#000000" fill-opacity="0.0" d="m0.61454517 47.425293c36.49892 6.2291946 36.49892 -6.2291985 72.99391 -6.2291985l0 -3.7691154c0 0 2.7595978 -0.22569275 5.515274 -0.22569275l0 -4.0286674c0 0 3.1403656 -0.16926956 6.280731 -0.16926956l0 -32.4821l-73.12345 0l0 4.096374l-5.652662 0l0 4.1979365l-6.0138035 0z" fill-rule="evenodd"/><path stroke="#000000" stroke-width="1.0" stroke-linejoin="round" stroke-linecap="butt" d="m0.61454517 8.815557l72.99391 0l0 32.38054c-36.494995 0 -36.494995 12.458393 -72.99391 6.2291985zm6.0138035 0l0 -4.1979365l72.495384 0l0 32.583668c-2.7556763 0 -5.515274 0.22569275 -5.515274 0.22569275m-61.32745 -32.80936l0 -4.096374l73.12345 0l0 32.4821c-3.1403656 0 -6.280731 0.16926956 -6.280731 0.16926956" fill-rule="evenodd"/><path fill="#000000" fill-opacity="0.0" d="m-4.3569336 6.4041996l84.7874 0l0 35.46457l-84.7874 0z" fill-rule="evenodd"/></g></svg>